<?xml version="1.0" standalone="no"?>
<!DOCTYPE svg PUBLIC "-//W3C//DTD SVG 20010904//EN"
 "http://www.w3.org/TR/2001/REC-SVG-20010904/DTD/svg10.dtd">
<svg version="1.0" xmlns="http://www.w3.org/2000/svg"
 width="546.000000pt" height="291.000000pt" viewBox="0 0 546.000000 291.000000"
 preserveAspectRatio="xMidYMid meet">

<g transform="translate(0.000000,291.000000) scale(0.100000,-0.100000)"
fill="#000000" stroke="none">
<path d="M0 1455 l0 -1455 2730 0 2730 0 0 1455 0 1455 -2730 0 -2730 0 0
-1455z m2983 1220 c234 -35 432 -133 603 -297 100 -97 165 -180 222 -286 80
-150 132 -359 132 -527 0 -154 -49 -365 -116 -497 -74 -146 -210 -308 -342
-407 -181 -136 -438 -221 -667 -221 -168 0 -377 52 -527 132 -197 105 -380
293 -482 496 -67 132 -116 343 -116 497 0 154 49 365 116 497 74 146 210 308
342 407 233 175 540 251 835 206z"/>
<path d="M2691 2524 c0 -11 3 -14 6 -6 3 7 2 16 -1 19 -3 4 -6 -2 -5 -13z"/>
<path d="M2743 2502 c-8 -5 -9 -13 -3 -22 7 -12 10 -12 16 3 8 21 3 29 -13 19z"/>
<path d="M2666 2475 c-3 -9 0 -15 9 -15 16 0 20 16 6 24 -5 3 -11 -1 -15 -9z"/>
<path d="M3075 2450 c3 -5 2 -10 -4 -10 -6 0 -15 -9 -21 -20 -9 -16 -8 -18 5
-14 14 6 35 34 35 48 0 3 -5 6 -11 6 -5 0 -7 -4 -4 -10z"/>
<path d="M2900 2440 c0 -5 9 -10 20 -10 11 0 20 5 20 10 0 6 -9 10 -20 10 -11
0 -20 -4 -20 -10z"/>
<path d="M3182 2433 c-19 -17 -19 -19 -1 -35 17 -16 19 -16 43 3 14 11 26 27
26 35 0 20 -44 18 -68 -3z"/>
<path d="M2747 2420 c-15 -12 -27 -30 -27 -40 0 -19 1 -19 35 1 37 22 39 26
27 47 -7 10 -15 8 -35 -8z"/>
<path d="M3120 2420 c-6 -11 -8 -20 -6 -20 3 0 10 9 16 20 6 11 8 20 6 20 -3
0 -10 -9 -16 -20z"/>
<path d="M2850 2400 c0 -5 5 -10 11 -10 5 0 7 5 4 10 -3 6 -8 10 -11 10 -2 0
-4 -4 -4 -10z"/>
<path d="M3139 2383 c-13 -16 -12 -17 4 -4 16 13 21 21 13 21 -2 0 -10 -8 -17
-17z"/>
<path d="M2910 2386 c0 -2 7 -7 16 -10 8 -3 12 -2 9 4 -6 10 -25 14 -25 6z"/>
<path d="M3005 2381 c-3 -5 -1 -12 5 -16 5 -3 10 1 10 9 0 18 -6 21 -15 7z"/>
<path d="M2880 2350 c0 -5 5 -10 11 -10 5 0 7 5 4 10 -3 6 -8 10 -11 10 -2 0
-4 -4 -4 -10z"/>
<path d="M2430 2346 c0 -2 7 -7 16 -10 8 -3 12 -2 9 4 -6 10 -25 14 -25 6z"/>
<path d="M2815 2340 c-3 -5 -1 -10 6 -10 6 0 20 -9 29 -20 11 -12 21 -17 24
-11 8 12 -23 51 -41 51 -6 0 -15 -4 -18 -10z"/>
<path d="M2655 2331 c-3 -5 -1 -12 4 -15 5 -3 11 1 15 9 6 16 -9 21 -19 6z"/>
<path d="M2747 2313 c-4 -3 -7 -11 -7 -17 0 -6 5 -5 12 2 6 6 9 14 7 17 -3 3
-9 2 -12 -2z"/>
<path d="M2797 2307 c-3 -9 -2 -19 4 -23 15 -9 18 -2 9 20 -6 17 -7 18 -13 3z"/>
<path d="M2360 2290 c0 -5 7 -10 16 -10 8 0 12 5 9 10 -3 6 -10 10 -16 10 -5
0 -9 -4 -9 -10z"/>
<path d="M2311 2274 c-12 -14 -11 -16 4 -12 10 1 20 9 23 16 5 17 -10 15 -27
-4z"/>
<path d="M2505 2280 c-3 -5 -2 -10 4 -10 5 0 13 5 16 10 3 6 2 10 -4 10 -5 0
-13 -4 -16 -10z"/>
<path d="M2547 2283 c-13 -13 -7 -21 13 -16 11 3 17 9 14 14 -6 11 -18 12 -27
2z"/>
<path d="M3112 2278 c3 -7 13 -15 24 -17 16 -3 17 -1 5 13 -16 19 -34 21 -29
4z"/>
<path d="M2690 2265 c0 -5 5 -17 10 -25 5 -8 10 -10 10 -5 0 6 -5 17 -10 25
-5 8 -10 11 -10 5z"/>
<path d="M2580 2252 c0 -5 7 -16 16 -23 14 -12 16 -11 13 5 -4 20 -29 35 -29
18z"/>
<path d="M2890 2250 c0 -5 5 -10 11 -10 5 0 7 5 4 10 -3 6 -8 10 -11 10 -2 0
-4 -4 -4 -10z"/>
<path d="M2350 2218 l-11 -33 -20 24 c-11 14 -25 21 -35 17 -13 -5 -13 -10 6
-33 50 -65 122 -33 94 41 -9 25 -21 19 -34 -16z"/>
<path d="M2553 2242 c-8 -5 -8 -12 3 -26 12 -18 14 -18 20 -2 8 21 -6 38 -23
28z"/>
<path d="M3070 2229 c0 -11 5 -17 10 -14 6 3 10 13 10 21 0 8 -4 14 -10 14 -5
0 -10 -9 -10 -21z"/>
<path d="M3110 2240 c-12 -8 -9 -10 13 -10 18 0 27 -5 27 -16 0 -8 5 -12 11
-9 7 5 4 14 -7 26 -19 22 -23 22 -44 9z"/>
<path d="M3332 2238 c-7 -7 -12 -23 -12 -35 0 -13 -6 -23 -12 -22 -23 3 -38
-1 -37 -8 4 -27 -3 -63 -11 -58 -5 3 -10 2 -10 -3 0 -12 24 -22 51 -22 25 0
60 36 53 54 -3 8 0 17 6 21 8 5 5 11 -7 21 -12 9 -14 16 -7 21 12 8 15 43 4
43 -3 0 -11 -5 -18 -12z m-22 -88 c0 -5 -4 -10 -10 -10 -5 0 -10 5 -10 10 0 6
5 10 10 10 6 0 10 -4 10 -10z"/>
<path d="M3387 2230 c19 -22 29 -19 20 5 -4 8 -13 15 -22 15 -13 0 -12 -3 2
-20z"/>
<path d="M2487 2234 c-8 -9 11 -44 23 -44 6 0 10 6 10 14 0 16 -24 38 -33 30z"/>
<path d="M2220 2215 c-7 -8 -19 -15 -27 -15 -8 0 -11 -4 -8 -10 3 -5 24 -10
45 -10 21 0 42 -5 46 -12 5 -8 -2 -9 -23 -5 -17 3 -33 3 -37 0 -7 -8 13 -33
26 -33 7 0 7 4 0 13 -8 9 -3 12 19 12 16 0 29 -4 29 -9 0 -5 2 -7 5 -4 9 9
-26 68 -41 68 -8 0 -12 5 -9 10 10 16 -11 12 -25 -5z"/>
<path d="M2825 2220 c-9 -15 11 -20 29 -7 16 12 16 13 -3 14 -11 1 -23 -2 -26
-7z"/>
<path d="M3040 2215 c0 -8 5 -15 10 -15 6 0 10 7 10 15 0 8 -4 15 -10 15 -5 0
-10 -7 -10 -15z"/>
<path d="M3109 2219 c-6 -32 -6 -38 3 -33 6 4 14 0 19 -7 7 -11 9 -11 9 2 0
14 -28 49 -31 38z"/>
<path d="M2605 2200 c3 -5 8 -10 11 -10 2 0 4 5 4 10 0 6 -5 10 -11 10 -5 0
-7 -4 -4 -10z"/>
<path d="M2836 2174 c-9 -24 -7 -34 7 -34 6 0 12 11 12 25 0 28 -10 33 -19 9z"/>
<path d="M2950 2176 c0 -21 19 -31 33 -17 9 9 7 10 -7 5 -13 -5 -17 -4 -12 4
3 6 2 13 -4 17 -5 3 -10 -1 -10 -9z"/>
<path d="M3380 2179 c0 -5 5 -7 10 -4 6 3 10 8 10 11 0 2 -4 4 -10 4 -5 0 -10
-5 -10 -11z"/>
<path d="M2900 2155 c0 -9 9 -15 21 -15 18 0 19 2 9 15 -7 8 -16 15 -21 15 -5
0 -9 -7 -9 -15z"/>
<path d="M3500 2160 c-8 -5 -12 -11 -10 -14 3 -2 14 2 24 10 22 15 10 19 -14
4z"/>
<path d="M3070 2151 c0 -11 39 -25 47 -18 3 3 2 10 -2 16 -8 13 -45 15 -45 2z"/>
<path d="M3540 2150 c0 -5 7 -7 15 -4 8 4 15 8 15 10 0 2 -7 4 -15 4 -8 0 -15
-4 -15 -10z"/>
<path d="M2078 2133 c6 -2 18 -2 25 0 6 3 1 5 -13 5 -14 0 -19 -2 -12 -5z"/>
<path d="M2148 2133 c7 -3 16 -2 19 1 4 3 -2 6 -13 5 -11 0 -14 -3 -6 -6z"/>
<path d="M2780 2130 c-11 -7 -12 -12 -4 -20 8 -8 13 -6 17 9 3 12 4 21 4 21
-1 0 -9 -5 -17 -10z"/>
<path d="M3550 2131 c0 -5 -16 -8 -35 -5 -41 5 -46 -2 -9 -16 17 -7 32 -7 45
0 20 11 26 30 9 30 -5 0 -10 -4 -10 -9z"/>
<path d="M2430 2115 c0 -8 5 -15 10 -15 6 0 10 7 10 15 0 8 -4 15 -10 15 -5 0
-10 -7 -10 -15z"/>
<path d="M3423 2103 c-7 -3 -13 -10 -13 -15 0 -6 3 -9 6 -5 3 3 17 -6 31 -21
l24 -27 -17 35 c-20 42 -16 38 -31 33z"/>
<path d="M2195 2080 c3 -5 10 -10 16 -10 5 0 9 5 9 10 0 6 -7 10 -16 10 -8 0
-12 -4 -9 -10z"/>
<path d="M2915 2070 c-3 -5 1 -10 9 -10 8 0 18 5 21 10 3 6 -1 10 -9 10 -8 0
-18 -4 -21 -10z"/>
<path d="M3196 2065 c-20 -20 -20 -20 0 -50 21 -32 34 -31 64 0 19 20 22 30
14 43 -15 23 -58 27 -78 7z m67 -7 c2 -7 0 -21 -5 -31 -9 -18 -10 -18 -29 2
-10 11 -19 25 -19 31 0 14 47 13 53 -2z"/>
<path d="M2275 2050 c-3 -5 -2 -10 4 -10 5 0 13 5 16 10 3 6 2 10 -4 10 -5 0
-13 -4 -16 -10z"/>
<path d="M2402 2030 c0 -14 2 -19 5 -12 2 6 2 18 0 25 -3 6 -5 1 -5 -13z"/>
<path d="M3120 2029 c0 -5 -4 -7 -10 -4 -5 3 -10 1 -10 -4 0 -14 2 -14 36 4
27 14 27 15 7 15 -13 0 -23 -5 -23 -11z"/>
<path d="M3150 2005 c0 -20 17 -28 23 -11 3 8 -1 17 -9 20 -8 3 -14 -1 -14 -9z"/>
<path d="M2276 2002 c-2 -4 -1 -14 5 -22 7 -12 9 -10 9 8 0 23 -5 28 -14 14z"/>
<path d="M2301 1964 c0 -11 3 -14 6 -6 3 7 2 16 -1 19 -3 4 -6 -2 -5 -13z"/>
<path d="M3176 1947 c3 -10 9 -15 12 -12 3 3 0 11 -7 18 -10 9 -11 8 -5 -6z"/>
<path d="M2636 1907 c-11 -8 -17 -23 -14 -38 2 -19 12 -26 50 -36 26 -6 52
-14 58 -18 14 -9 13 -38 -2 -55 -11 -12 -10 -12 5 0 21 16 19 59 -3 71 -8 5
-34 13 -57 19 -46 12 -52 23 -26 52 19 21 14 23 -11 5z"/>
<path d="M2721 1901 c13 -11 26 -18 28 -15 7 7 -21 34 -36 34 -10 0 -8 -6 8
-19z"/>
<path d="M2770 1835 c0 -50 4 -85 10 -85 6 0 10 35 10 85 0 50 -4 85 -10 85
-6 0 -10 -35 -10 -85z"/>
<path d="M2995 1899 c-10 -15 3 -25 16 -12 7 7 7 13 1 17 -6 3 -14 1 -17 -5z"/>
<path d="M2806 1862 c-2 -4 8 -8 22 -7 26 0 27 -3 30 -52 2 -29 7 -53 13 -53
13 0 11 94 -3 108 -13 13 -54 16 -62 4z"/>
<path d="M2900 1811 c0 -34 4 -61 10 -61 6 0 10 20 10 44 0 49 18 71 50 61 17
-5 20 -15 20 -56 0 -27 5 -49 10 -49 6 0 10 26 10 58 l0 57 -34 2 c-19 2 -38
-2 -41 -8 -5 -7 -11 -6 -21 2 -12 10 -14 2 -14 -50z"/>
<path d="M2616 1792 c-9 -16 11 -42 32 -42 14 0 14 1 0 13 -9 6 -18 19 -20 27
-3 11 -6 11 -12 2z"/>
<path d="M2403 1668 c35 -91 72 -157 81 -148 18 18 64 160 51 160 -6 0 -17
-24 -24 -52 -23 -89 -26 -90 -60 -15 -17 37 -35 67 -42 67 -6 0 -9 -6 -6 -12z"/>
<path d="M2722 1598 l-2 -88 34 0 c19 0 42 7 50 16 28 28 16 104 -17 104 -5 0
-1 -7 7 -16 34 -33 12 -94 -34 -94 -29 0 -30 2 -30 43 0 24 6 49 13 56 8 10 8
12 0 7 -8 -4 -13 5 -16 26 -2 18 -5 -6 -5 -54z"/>
<path d="M2840 1595 c0 -50 4 -85 10 -85 6 0 10 22 10 50 0 36 5 52 18 60 16
11 16 11 0 6 -14 -4 -18 1 -18 24 0 17 -4 30 -10 30 -6 0 -10 -35 -10 -85z"/>
<path d="M2680 1654 c0 -8 5 -12 10 -9 6 3 10 10 10 16 0 5 -4 9 -10 9 -5 0
-10 -7 -10 -16z"/>
<path d="M3195 1660 c-3 -5 3 -10 15 -10 12 0 18 5 15 10 -3 6 -10 10 -15 10
-5 0 -12 -4 -15 -10z"/>
<path d="M2567 1623 c-10 -9 -9 -23 2 -23 5 0 11 7 15 15 5 15 -5 20 -17 8z"/>
<path d="M2637 1577 c1 -29 2 -55 2 -59 1 -5 6 -8 11 -8 15 0 12 96 -2 108
-10 8 -13 -1 -11 -41z"/>
<path d="M2680 1568 c0 -34 3 -58 8 -54 9 10 9 116 0 116 -5 0 -8 -28 -8 -62z"/>
<path d="M2918 1623 c7 -3 12 -24 12 -53 0 -27 5 -52 10 -55 15 -9 13 88 -2
103 -7 7 -17 12 -22 11 -6 0 -5 -3 2 -6z"/>
<path d="M2987 1623 c-10 -9 -9 -23 2 -23 5 0 11 7 15 15 5 15 -5 20 -17 8z"/>
<path d="M3047 1618 c4 -7 8 -33 8 -57 0 -27 5 -46 13 -48 8 -3 12 8 12 37 0
44 -14 80 -31 80 -6 0 -7 -5 -2 -12z"/>
<path d="M3080 1625 c0 -15 51 -115 59 -115 5 0 17 20 27 45 21 55 33 58 29 6
-2 -27 1 -41 11 -45 11 -4 14 7 14 54 0 57 -1 60 -25 60 -21 0 -27 -7 -38 -47
l-14 -48 -21 48 c-11 26 -26 47 -31 47 -6 0 -11 -2 -11 -5z"/>
<path d="M2992 1574 c-30 -21 -29 -52 3 -60 14 -4 29 -4 32 0 4 3 -3 6 -15 6
-27 0 -29 26 -5 52 20 22 15 23 -15 2z"/>
<path d="M2566 1567 c-28 -20 -17 -52 19 -54 17 -1 23 0 15 4 -23 9 -30 25
-19 45 12 21 9 22 -15 5z"/>
<path d="M2701 1431 c13 -11 26 -18 28 -15 7 7 -21 34 -36 34 -10 0 -8 -6 8
-19z"/>
<path d="M2790 1365 c0 -50 4 -85 10 -85 6 0 10 35 10 85 0 50 -4 85 -10 85
-6 0 -10 -35 -10 -85z"/>
<path d="M2833 1365 c0 -49 1 -81 4 -70 11 50 14 51 44 16 36 -44 47 -36 14
10 -24 31 -24 35 -9 46 9 7 22 14 28 16 6 2 8 8 4 12 -4 4 -22 -5 -40 -20
l-33 -28 -6 54 c-5 44 -6 38 -6 -36z"/>
<path d="M2604 1426 c-13 -33 1 -51 48 -63 26 -6 52 -14 58 -18 16 -10 12 -43
-7 -54 -17 -10 -17 -10 -1 -11 10 0 22 9 28 21 18 32 -11 67 -60 75 -48 8 -68
27 -50 49 9 11 9 15 1 15 -6 0 -14 -6 -17 -14z"/>
<path d="M2755 1431 c-3 -5 -1 -12 5 -16 5 -3 10 1 10 9 0 18 -6 21 -15 7z"/>
<path d="M2757 1393 c-11 -10 -8 -113 3 -113 6 0 10 27 10 60 0 61 -1 65 -13
53z"/>
<path d="M2940 1381 c-8 -16 -6 -23 12 -35 12 -9 30 -16 40 -16 24 0 32 -18
16 -37 -11 -14 -11 -15 2 -11 8 2 15 16 15 29 0 18 -8 26 -32 34 -42 14 -48
21 -33 40 8 10 9 15 2 15 -6 0 -16 -9 -22 -19z"/>
<path d="M2995 1390 c3 -5 14 -10 23 -10 15 0 15 2 2 10 -20 13 -33 13 -25 0z"/>
<path d="M2600 1311 c0 -12 7 -24 15 -28 24 -9 25 0 4 26 -19 23 -19 23 -19 2z"/>
<path d="M2940 1301 c0 -13 39 -35 48 -27 3 3 0 6 -6 6 -6 0 -18 7 -26 16 -9
8 -16 11 -16 5z"/>
<path d="M2658 1273 c7 -3 16 -2 19 1 4 3 -2 6 -13 5 -11 0 -14 -3 -6 -6z"/>
<path d="M2302 1170 c0 -14 2 -19 5 -12 2 6 2 18 0 25 -3 6 -5 1 -5 -13z"/>
<path d="M2277 1145 c-4 -8 -2 -17 3 -20 6 -4 10 3 10 14 0 25 -6 27 -13 6z"/>
<path d="M3153 1120 c4 -16 0 -20 -20 -20 -13 0 -21 4 -18 10 3 6 1 10 -5 10
-7 0 -10 -6 -7 -12 2 -7 16 -13 32 -13 21 0 29 5 31 23 2 12 -1 22 -7 22 -6 0
-9 -9 -6 -20z"/>
<path d="M3202 1133 c-6 -2 -9 -9 -6 -15 4 -6 1 -13 -5 -17 -18 -11 -2 -40 25
-47 54 -14 80 23 44 62 -23 24 -34 27 -58 17z m61 -59 c-6 -16 -53 -19 -53 -4
0 5 8 19 17 30 16 19 19 19 30 4 6 -9 9 -22 6 -30z"/>
<path d="M2402 1100 c0 -14 2 -19 5 -12 2 6 2 18 0 25 -3 6 -5 1 -5 -13z"/>
<path d="M2277 1079 c7 -7 15 -10 18 -7 3 3 -2 9 -12 12 -14 6 -15 5 -6 -5z"/>
<path d="M3433 1056 c-17 -20 -19 -26 -7 -30 8 -3 14 0 14 6 0 6 7 20 17 30 9
10 12 18 6 18 -5 0 -19 -11 -30 -24z"/>
<path d="M2910 1060 c20 -13 43 -13 35 0 -3 6 -16 10 -28 10 -18 0 -19 -2 -7
-10z"/>
<path d="M2200 1050 c0 -5 5 -10 10 -10 6 0 10 5 10 10 0 6 -4 10 -10 10 -5 0
-10 -4 -10 -10z"/>
<path d="M3259 1023 c-10 -11 -10 -14 -1 -9 8 5 12 0 12 -14 0 -32 18 -60 35
-54 11 5 15 -1 15 -18 0 -22 16 -48 30 -48 11 0 8 35 -4 43 -7 5 -5 12 7 21
12 10 15 16 7 21 -6 4 -9 13 -6 21 8 20 -29 54 -58 54 -13 0 -30 -8 -37 -17z
m51 -43 c0 -5 -4 -10 -10 -10 -5 0 -10 5 -10 10 0 6 5 10 10 10 6 0 10 -4 10
-10z"/>
<path d="M2430 1015 c0 -8 5 -15 10 -15 6 0 10 7 10 15 0 8 -4 15 -10 15 -5 0
-10 -7 -10 -15z"/>
<path d="M2777 1016 c-3 -8 0 -17 7 -19 10 -4 12 1 9 14 -6 23 -9 24 -16 5z"/>
<path d="M3503 1020 c-29 -12 -30 -24 -1 -17 12 3 29 2 39 -4 11 -6 20 -6 24
0 3 6 -3 15 -14 20 -23 13 -19 12 -48 1z"/>
<path d="M2098 993 c7 -3 16 -2 19 1 4 3 -2 6 -13 5 -11 0 -14 -3 -6 -6z"/>
<path d="M2148 993 c7 -3 16 -2 19 1 4 3 -2 6 -13 5 -11 0 -14 -3 -6 -6z"/>
<path d="M2221 986 c-16 -19 3 -31 26 -17 11 6 13 11 5 11 -7 0 -10 5 -7 10 9
15 -11 12 -24 -4z"/>
<path d="M3079 984 c-11 -14 -10 -15 11 -12 13 1 25 9 28 16 5 17 -23 15 -39
-4z"/>
<path d="M2282 970 c-9 -14 -23 -20 -51 -20 -22 0 -43 -4 -46 -10 -3 -5 0 -10
8 -10 8 0 20 -7 27 -15 14 -17 35 -21 25 -5 -3 6 1 10 9 10 9 0 23 14 31 31
18 35 16 49 -3 19z"/>
<path d="M2830 978 c0 -7 4 -19 9 -26 6 -10 10 -7 13 12 4 18 1 26 -8 26 -8 0
-14 -6 -14 -12z"/>
<path d="M2900 970 c0 -13 5 -18 15 -14 8 4 15 12 15 20 0 8 -7 14 -15 14 -8
0 -15 -9 -15 -20z"/>
<path d="M3490 981 c0 -9 30 -24 36 -18 2 1 -6 8 -16 15 -11 7 -20 8 -20 3z"/>
<path d="M3540 978 c0 -4 7 -8 15 -8 8 0 15 4 15 8 0 5 -7 9 -15 9 -8 0 -15
-4 -15 -9z"/>
<path d="M2333 971 c-12 -3 -31 -18 -42 -32 -18 -24 -19 -28 -5 -33 10 -4 23
3 34 16 l19 23 11 -32 c13 -36 25 -42 34 -17 17 44 -11 86 -51 75z"/>
<path d="M2950 949 c0 -5 5 -7 10 -4 6 3 10 8 10 11 0 2 -4 4 -10 4 -5 0 -10
-5 -10 -11z"/>
<path d="M3130 950 c0 -7 -6 -10 -14 -7 -10 4 -12 0 -9 -14 4 -15 9 -17 16
-10 15 15 27 14 27 -4 0 -8 -9 -15 -20 -15 -11 0 -20 -7 -20 -15 0 -12 4 -13
18 -6 36 19 42 34 21 60 -10 13 -19 18 -19 11z"/>
<path d="M3385 940 c3 -5 8 -10 11 -10 2 0 4 5 4 10 0 6 -5 10 -11 10 -5 0 -7
-4 -4 -10z"/>
<path d="M2490 921 c-5 -11 -6 -22 -1 -25 11 -7 43 28 34 37 -11 12 -22 8 -33
-12z"/>
<path d="M2580 931 c0 -7 -4 -10 -8 -7 -4 2 -13 -4 -20 -14 -9 -14 -8 -19 4
-24 10 -4 18 3 25 21 5 14 7 28 4 31 -3 3 -5 0 -5 -7z"/>
<path d="M2605 930 c-3 -5 -1 -10 4 -10 6 0 11 5 11 10 0 6 -2 10 -4 10 -3 0
-8 -4 -11 -10z"/>
<path d="M2825 920 c-7 -12 18 -24 37 -18 8 3 5 9 -9 16 -14 8 -24 9 -28 2z"/>
<path d="M3040 915 c0 -8 5 -15 10 -15 6 0 10 7 10 15 0 8 -4 15 -10 15 -5 0
-10 -7 -10 -15z"/>
<path d="M3390 900 c-9 -16 -8 -18 5 -14 8 4 15 12 15 20 0 20 -7 17 -20 -6z"/>
<path d="M2591 896 c-16 -19 -11 -29 8 -17 7 5 12 14 9 21 -3 9 -8 7 -17 -4z"/>
<path d="M3070 895 c0 -8 5 -15 10 -15 6 0 10 7 10 15 0 8 -4 15 -10 15 -5 0
-10 -7 -10 -15z"/>
<path d="M2620 889 c0 -5 5 -7 10 -4 6 3 10 8 10 11 0 2 -4 4 -10 4 -5 0 -10
-5 -10 -11z"/>
<path d="M2696 885 c-9 -26 -7 -32 5 -12 6 10 9 21 6 23 -2 3 -7 -2 -11 -11z"/>
<path d="M2900 890 c-8 -5 -10 -10 -5 -10 6 0 17 5 25 10 8 5 11 10 5 10 -5 0
-17 -5 -25 -10z"/>
<path d="M2315 854 c9 -9 18 -14 21 -11 9 9 -6 27 -22 27 -13 0 -13 -2 1 -16z"/>
<path d="M3115 859 c-12 -19 5 -23 22 -6 16 16 16 17 1 17 -9 0 -20 -5 -23
-11z"/>
<path d="M2500 850 c0 -5 7 -10 16 -10 8 0 12 5 9 10 -3 6 -10 10 -16 10 -5 0
-9 -4 -9 -10z"/>
<path d="M2548 848 c9 -9 15 -9 24 0 9 9 7 12 -12 12 -19 0 -21 -3 -12 -12z"/>
<path d="M2360 840 c0 -5 4 -10 9 -10 6 0 13 5 16 10 3 6 -1 10 -9 10 -9 0
-16 -4 -16 -10z"/>
<path d="M2796 842 c-2 -4 -1 -14 3 -21 6 -9 10 -7 14 8 5 20 -7 29 -17 13z"/>
<path d="M2740 831 c0 -5 5 -13 10 -16 6 -3 10 -2 10 4 0 5 -4 13 -10 16 -5 3
-10 2 -10 -4z"/>
<path d="M2850 820 c-8 -10 -21 -21 -29 -23 -13 -3 -13 -5 2 -12 23 -10 67 29
51 45 -6 6 -14 3 -24 -10z"/>
<path d="M2656 812 c-3 -6 -1 -14 5 -17 14 -9 20 -2 10 14 -6 8 -11 9 -15 3z"/>
<path d="M2438 783 c7 -3 16 -2 19 1 4 3 -2 6 -13 5 -11 0 -14 -3 -6 -6z"/>
<path d="M2880 780 c0 -5 5 -10 11 -10 5 0 7 5 4 10 -3 6 -8 10 -11 10 -2 0
-4 -4 -4 -10z"/>
<path d="M3007 765 c-4 -8 -2 -17 3 -20 6 -4 10 3 10 14 0 25 -6 27 -13 6z"/>
<path d="M2720 752 c0 -11 12 -30 27 -42 23 -18 28 -19 35 -5 10 17 3 35 -14
35 -6 0 -20 7 -30 17 -17 15 -18 15 -18 -5z"/>
<path d="M2920 750 c-9 -6 -10 -10 -3 -10 6 0 15 5 18 10 8 12 4 12 -15 0z"/>
<path d="M3186 734 c-4 -10 -12 -14 -24 -10 -13 6 -12 2 5 -15 25 -25 83 -35
83 -15 0 12 -22 36 -46 49 -7 4 -15 0 -18 -9z"/>
<path d="M2850 729 c0 -5 5 -7 10 -4 6 3 10 8 10 11 0 2 -4 4 -10 4 -5 0 -10
-5 -10 -11z"/>
<path d="M3055 703 c18 -31 35 -43 35 -25 0 10 -12 25 -34 42 -19 15 -19 15
-1 -17z"/>
<path d="M3120 710 c6 -11 13 -20 16 -20 2 0 0 9 -6 20 -6 11 -13 20 -16 20
-2 0 0 -9 6 -20z"/>
<path d="M2900 690 c0 -5 9 -10 20 -10 11 0 20 5 20 10 0 6 -9 10 -20 10 -11
0 -20 -4 -20 -10z"/>
<path d="M2667 653 c3 -7 9 -10 14 -7 14 8 11 21 -5 21 -8 0 -12 -6 -9 -14z"/>
<path d="M2740 646 c0 -9 5 -16 10 -16 6 0 10 4 10 9 0 6 -4 13 -10 16 -5 3
-10 -1 -10 -9z"/>
<path d="M2691 604 c0 -11 3 -14 6 -6 3 7 2 16 -1 19 -3 4 -6 -2 -5 -13z"/>
</g>
</svg>
